<?xml version="1.0" encoding="UTF-8" standalone="no"?>
<!-- Created with Inkscape (http://www.inkscape.org/) -->

<svg
   xmlns:dc="http://purl.org/dc/elements/1.1/"
   xmlns:cc="http://creativecommons.org/ns#"
   xmlns:rdf="http://www.w3.org/1999/02/22-rdf-syntax-ns#"
   xmlns:svg="http://www.w3.org/2000/svg"
   xmlns="http://www.w3.org/2000/svg"
   xmlns:sodipodi="http://sodipodi.sourceforge.net/DTD/sodipodi-0.dtd"
   xmlns:inkscape="http://www.inkscape.org/namespaces/inkscape"
   width="128"
   height="128"
   id="svg2"
   version="1.1"
   inkscape:version="0.48.4 r9939"
   sodipodi:docname="es.svg">
  <defs
     id="defs4" />
  <sodipodi:namedview
     id="base"
     pagecolor="#ffffff"
     bordercolor="#666666"
     borderopacity="1.0"
     inkscape:pageopacity="0.0"
     inkscape:pageshadow="2"
     inkscape:zoom="1.1660157"
     inkscape:cx="200.54615"
     inkscape:cy="51.941915"
     inkscape:document-units="px"
     inkscape:current-layer="layer1"
     showgrid="true"
     inkscape:snap-page="false"
     inkscape:window-width="1366"
     inkscape:window-height="744"
     inkscape:window-x="0"
     inkscape:window-y="24"
     inkscape:window-maximized="1">
    <inkscape:grid
       type="xygrid"
       id="grid2985"
       empspacing="5"
       visible="true"
       enabled="true"
       snapvisiblegridlinesonly="true" />
  </sodipodi:namedview>
  <metadata
     id="metadata7">
    <rdf:RDF>
      <cc:Work
         rdf:about="">
        <dc:format>image/svg+xml</dc:format>
        <dc:type
           rdf:resource="http://purl.org/dc/dcmitype/StillImage" />
        <dc:title />
      </cc:Work>
    </rdf:RDF>
  </metadata>
  <g
     inkscape:label="Layer 1"
     inkscape:groupmode="layer"
     id="layer1"
     transform="translate(0,-924.36218)">
    <g
       style="stroke:none;display:block"
       id="layer4"
       transform="matrix(0.08798405,0,0,0.08595212,-111.80137,1023.2879)"
       inkscape:export-filename="/home/ybon/Work/osmtouch64.png"
       inkscape:export-xdpi="28.799999"
       inkscape:export-ydpi="28.799999" />
    <path
       style="fill:#23455d;fill-opacity:1;fill-rule:nonzero;stroke:none"
       d="M 64 0 C 28.653776 0 0 28.65378 0 64 C 0 99.34622 28.653776 128 64 128 C 99.346224 128 128 99.34622 128 64 C 128 28.65378 99.346224 0 64 0 z M 62.78125 28.0625 C 63.022317 28.047184 63.276557 28.054382 63.53125 28.0625 C 65.059405 28.111211 66.730031 28.618305 67.53125 29.71875 C 68.484097 30.9842 67.738737 32.76973 69.1875 33.6875 C 69.722357 35.05203 68.923984 36.95125 70.3125 38 C 71.570784 38.60938 70.529772 40.25561 71.5 40.78125 C 73.185744 41.10629 73.476289 43.78079 75.28125 43.40625 C 76.43971 43.27559 77.516753 43.36376 78.125 44.5 C 78.745253 45.75174 79.979555 45.5295 81.15625 45.5 C 82.100318 47.51516 79.361043 49.34977 78.53125 51.03125 C 76.828675 52.17274 79.013361 54.27545 80.5 54 C 82.065916 53.69774 82.39868 54.68675 82.34375 56.0625 C 83.655064 56.66247 84.99256 57.31425 85.40625 58.84375 C 85.823083 60.33655 86.090358 61.80758 87.84375 62.09375 L 90.6875 59.84375 C 92.283366 59.8514 93.983665 59.29059 95.5 59.65625 C 96.837755 60.83853 98.625826 60.3381 100.25 60.4375 C 101.573 60.16793 101.80489 61.97986 102.59375 62.71875 C 102.56171 63.57097 102.9848 65.30983 101.90625 65.625 C 100.80647 65.98319 99.845401 66.45033 99.6875 67.71875 C 99.308995 69.73402 96.934986 70.04737 95.59375 71.28125 C 94.432 72.46411 92.729529 71.6187 91.28125 71.6875 C 89.651928 71.90386 88.482431 70.27806 87.0625 70.0625 C 85.45455 71.16032 83.465961 70.742 81.65625 70.75 C 80.666725 70.20499 79.823301 68.81905 78.71875 68.84375 C 77.53723 69.45967 76.371974 69.11715 75.1875 68.71875 C 74.371617 67.94904 73.609018 67.07891 72.375 67.21875 C 71.17276 67.25484 70.158825 66.81868 69.40625 65.875 C 67.874528 65.39451 67.736876 67.19027 67.09375 68.15625 C 66.669706 70.35261 64.248499 69.0932 62.84375 68.53125 C 60.19256 67.40642 65.973483 65.31627 65.09375 63 C 65.264783 61.53865 63.461468 62.17869 62.65625 62.5 C 61.207795 62.48006 61.141496 63.98497 60.625 65 C 59.944429 66.33172 55.939009 65.01988 57.5 66.875 C 61.595764 70.22552 67.052404 71.13317 71.5625 73.78125 C 73.260041 74.36522 73.986526 75.98285 74.96875 77.34375 C 76.730599 80.76925 77.939624 84.4949 79.5625 88 L 69.6875 88 C 66.463382 88.0005 63.224441 87.9999 60 88 C 59.115825 87.0666 61.13531 86.0495 61.75 85.3125 C 63.338862 83.7086 65.86378 82.61595 66.84375 80.59375 C 67.191757 79.24755 65.792021 78.6492 65.0625 77.75 C 63.073748 76.7703 60.789406 76.23028 58.84375 75.09375 C 56.298271 74.00653 54.736892 71.71014 52.875 69.78125 C 52.393034 68.82259 50.308375 68.56332 50.0625 69.71875 C 49.717605 70.87654 49.22857 71.88145 47.90625 72.03125 C 46.241017 72.44944 44.415195 71.49496 42.65625 71.8125 C 41.264143 72.13256 40.150808 71.36513 39.03125 70.65625 C 38.050113 70.35272 37.070027 71.77136 35.9375 70.84375 C 34.683271 70.69342 33.705011 70.06919 33 69.03125 C 31.93029 69.07408 30.600031 70.02369 29.9375 68.75 C 29.243579 67.74093 27.483478 67.12386 27.8125 65.71875 C 27.985927 64.01133 28.42588 61.93775 26.1875 61.8125 C 24.959095 61.58771 24.022407 60.72806 23.625 59.59375 C 23.579729 58.36938 23.322928 57.00808 24.9375 56.875 C 26.814815 56.44574 27.849589 54.79383 28.65625 53.15625 C 29.172188 51.44859 31.012245 50.71815 32.6875 50.78125 C 33.868478 50.03872 34.795366 48.66847 35.875 47.6875 C 36.854938 45.97267 36.843652 43.71844 37.65625 41.875 C 38.621013 40.54451 38.677501 35.49791 40.9375 36.71875 C 41.874932 38.14862 43.050447 36.13644 43.8125 37.28125 C 44.612269 38.15782 44.250891 39.38403 45.875 39.5 C 47.291712 39.57547 47.030825 41.44997 48.03125 41.9375 C 49.8508 42.20308 51.024934 43.57388 52.34375 44.71875 C 53.705729 45.17052 53.17635 43.37433 53.15625 42.53125 C 52.700986 41.19964 54.708894 40.70436 54.8125 39.59375 C 54.356799 38.38008 54.419456 37.33298 55.65625 36.65625 C 57.490982 35.14877 58.693635 33.32596 57.34375 31.15625 C 57.519282 29.15325 60.561727 28.85937 62.09375 28.15625 C 62.312288 28.115645 62.540183 28.077816 62.78125 28.0625 z M 49.9375 87.3125 L 51.65625 87.3125 L 53.375 87.3125 L 54.5 88.71875 L 55.625 90.125 L 69.53125 90.125 L 83.40625 90.125 L 84.65625 88.71875 L 85.90625 87.3125 L 87.5 87.3125 L 89.0625 87.3125 L 88.8125 88.78125 L 88.59375 90.25 L 87.71875 91.03125 L 86.875 91.84375 L 86.875 92.34375 C 86.875 92.61315 86.542605 93.1796 86.15625 93.625 C 85.769894 94.0705 85.46875 94.64605 85.46875 94.90625 L 85.46875 95.375 L 82.3125 95.375 L 79.1875 95.375 L 78.96875 95.03125 L 78.75 94.6875 L 68.9375 94.6875 L 59.15625 94.6875 L 58.9375 95.03125 L 58.71875 95.375 L 56.28125 95.375 L 53.8125 95.375 L 53.53125 94.59375 C 53.362978 94.15115 52.966139 93.5698 52.65625 93.3125 L 52.09375 92.84375 L 52.09375 92.09375 L 52.09375 91.375 L 51.25 90.65625 L 50.40625 89.9375 L 50.1875 88.625 L 49.9375 87.3125 z "
       transform="translate(0,924.36218)"
       id="path3022" />
    <g
       id="g4593"
       transform="matrix(1.0144451,0,0,1.0144451,-4.2606775,-9.0363354)" />
    <path
       style="fill:#000000"
       d=""
       id="path3037"
       inkscape:connector-curvature="0" />
    <path
       style="fill:#000000"
       d=""
       id="path3035"
       inkscape:connector-curvature="0" />
  </g>
</svg>
