<?xml version="1.0" encoding="UTF-8" standalone="no"?>
<!-- Created with Inkscape (http://www.inkscape.org/) -->

<svg
   xmlns:dc="http://purl.org/dc/elements/1.1/"
   xmlns:cc="http://creativecommons.org/ns#"
   xmlns:rdf="http://www.w3.org/1999/02/22-rdf-syntax-ns#"
   xmlns:svg="http://www.w3.org/2000/svg"
   xmlns="http://www.w3.org/2000/svg"
   xmlns:sodipodi="http://sodipodi.sourceforge.net/DTD/sodipodi-0.dtd"
   xmlns:inkscape="http://www.inkscape.org/namespaces/inkscape"
   width="128"
   height="128"
   id="svg2"
   version="1.1"
   inkscape:version="0.48.4 r9939"
   sodipodi:docname="opensource.svg">
  <defs
     id="defs4" />
  <sodipodi:namedview
     id="base"
     pagecolor="#ffffff"
     bordercolor="#666666"
     borderopacity="1.0"
     inkscape:pageopacity="0.0"
     inkscape:pageshadow="2"
     inkscape:zoom="2.3320313"
     inkscape:cx="4.0967189"
     inkscape:cy="69.668947"
     inkscape:document-units="px"
     inkscape:current-layer="layer1"
     showgrid="true"
     inkscape:snap-page="false"
     inkscape:window-width="1366"
     inkscape:window-height="744"
     inkscape:window-x="0"
     inkscape:window-y="24"
     inkscape:window-maximized="1">
    <inkscape:grid
       type="xygrid"
       id="grid2985"
       empspacing="5"
       visible="true"
       enabled="true"
       snapvisiblegridlinesonly="true" />
  </sodipodi:namedview>
  <metadata
     id="metadata7">
    <rdf:RDF>
      <cc:Work
         rdf:about="">
        <dc:format>image/svg+xml</dc:format>
        <dc:type
           rdf:resource="http://purl.org/dc/dcmitype/StillImage" />
        <dc:title />
      </cc:Work>
    </rdf:RDF>
  </metadata>
  <g
     inkscape:label="Layer 1"
     inkscape:groupmode="layer"
     id="layer1"
     transform="translate(0,-924.36218)">
    <g
       style="stroke:none;display:block"
       id="layer4"
       transform="matrix(0.08798405,0,0,0.08595212,-111.80137,1023.2879)"
       inkscape:export-filename="/home/ybon/Work/osmtouch64.png"
       inkscape:export-xdpi="28.799999"
       inkscape:export-ydpi="28.799999" />
    <path
       style="fill:#23455d;fill-opacity:1;fill-rule:nonzero;stroke:none"
       d="M 64 0 C 28.653776 1.4210855e-14 0 28.653776 0 64 C 0 99.346224 28.653776 128 64 128 C 99.346224 128 128 99.346224 128 64 C 128 28.653776 99.346224 -1.0658141e-14 64 0 z M 64 28.46875 C 83.617861 28.46875 99.53125 44.382133 99.53125 64 C 99.53125 83.617897 83.617861 99.53125 64 99.53125 C 44.382139 99.53125 28.46875 83.617897 28.46875 64 C 28.46875 44.382133 44.382139 28.46875 64 28.46875 z M 63.6875 41.8125 C 53.192574 41.8125 44.385444 49.150935 42.125 59 L 52.6875 59 C 54.625025 54.802033 58.843688 51.875 63.6875 51.875 C 70.388104 51.875 75.78125 57.299367 75.78125 64 C 75.78125 70.700521 70.388104 76.125 63.6875 76.125 C 58.843688 76.125 54.625025 73.211068 52.6875 69.09375 L 42.125 69.09375 C 44.385444 78.862116 53.192574 86.1875 63.6875 86.1875 C 75.958486 86.1875 85.875 76.271002 85.875 64 C 85.875 51.729008 75.958486 41.8125 63.6875 41.8125 z "
       transform="translate(0,924.36218)"
       id="path2987" />
    <g
       id="g4593"
       transform="matrix(1.0144451,0,0,1.0144451,-4.2606775,-9.0363354)" />
  </g>
</svg>
