<?xml version="1.0" encoding="UTF-8" standalone="no"?>
<!-- Created with Inkscape (http://www.inkscape.org/) -->

<svg
   xmlns:dc="http://purl.org/dc/elements/1.1/"
   xmlns:cc="http://creativecommons.org/ns#"
   xmlns:rdf="http://www.w3.org/1999/02/22-rdf-syntax-ns#"
   xmlns:svg="http://www.w3.org/2000/svg"
   xmlns="http://www.w3.org/2000/svg"
   xmlns:sodipodi="http://sodipodi.sourceforge.net/DTD/sodipodi-0.dtd"
   xmlns:inkscape="http://www.inkscape.org/namespaces/inkscape"
   width="128"
   height="128"
   id="svg2"
   version="1.1"
   inkscape:version="0.48.4 r9939"
   sodipodi:docname="osm.svg">
  <defs
     id="defs4" />
  <sodipodi:namedview
     id="base"
     pagecolor="#ffffff"
     bordercolor="#666666"
     borderopacity="1.0"
     inkscape:pageopacity="0.0"
     inkscape:pageshadow="2"
     inkscape:zoom="3.2979902"
     inkscape:cx="58.597287"
     inkscape:cy="57.200048"
     inkscape:document-units="px"
     inkscape:current-layer="layer1"
     showgrid="true"
     inkscape:snap-page="false"
     inkscape:window-width="1366"
     inkscape:window-height="744"
     inkscape:window-x="0"
     inkscape:window-y="24"
     inkscape:window-maximized="1">
    <inkscape:grid
       type="xygrid"
       id="grid2985"
       empspacing="5"
       visible="true"
       enabled="true"
       snapvisiblegridlinesonly="true" />
  </sodipodi:namedview>
  <metadata
     id="metadata7">
    <rdf:RDF>
      <cc:Work
         rdf:about="">
        <dc:format>image/svg+xml</dc:format>
        <dc:type
           rdf:resource="http://purl.org/dc/dcmitype/StillImage" />
        <dc:title />
      </cc:Work>
    </rdf:RDF>
  </metadata>
  <g
     inkscape:label="Layer 1"
     inkscape:groupmode="layer"
     id="layer1"
     transform="translate(0,-924.36218)">
    <path
       style="opacity:1;fill:#23455d;fill-opacity:1;fill-rule:nonzero;stroke:none"
       d="M 64 0 C 28.653776 0 0 28.65378 0 64 C 0 99.34622 28.653776 128 64 128 C 99.346224 128 128 99.34622 128 64 C 128 28.65378 99.346224 0 64 0 z M 94.3125 30.75 L 95.875 36.65625 C 93.755072 34.6824 91.339303 33.15182 88.78125 32.09375 L 94.3125 30.75 z M 31.1875 30.875 L 45.84375 34.3125 C 47.642465 42.30898 49.042319 48.73783 49 48.78125 C 48.96005 48.82225 42.664779 47.00937 34.78125 44.6875 L 31.1875 30.875 z M 63.34375 30.875 L 69.5625 32.375 C 67.767158 33.18496 66.019204 34.22818 64.4375 35.5 C 63.937215 33.40966 63.91114 33.2514 63.34375 30.875 z M 61.46875 31.0625 C 61.96621 33.15322 62.457254 35.11437 62.875 36.90625 C 58.982533 40.85229 57.843901 42.64841 56.53125 47.84375 C 53.74082 48.48379 51.302989 48.99374 51.21875 48.90625 C 51.13072 48.81485 49.688517 42.82284 47.75 34.40625 L 61.46875 31.0625 z M 79.28125 31.375 C 85.035216 31.37652 90.800364 33.5426 95.1875 37.8125 C 103.96169 46.35232 103.96177 60.17894 95.1875 68.71875 C 87.317961 76.37802 75.152368 77.57135 65.3125 70.6875 L 59.5625 76.34375 C 59.5625 76.34375 55.47401 72.4288 55.40625 72.375 L 61.5 66.65625 C 55.253348 58.11352 55.536714 45.47176 63.40625 37.8125 C 67.793391 33.54303 73.527283 31.373 79.28125 31.375 z M 79.28125 35.03125 C 74.486471 35.02973 69.718447 36.81675 66.0625 40.375 C 58.750594 47.49152 58.750594 59.07098 66.0625 66.1875 C 73.374392 73.30399 85.250603 73.30399 92.5625 66.1875 C 99.874572 59.07098 99.843101 47.49149 92.53125 40.375 C 88.875303 36.81631 84.076028 35.03325 79.28125 35.03125 z M 79.34375 37.625 C 85.647491 37.62 91.051 41.29127 93.8125 47.0625 C 96.632783 54.10115 94.132738 63.27461 86.28125 67.46875 C 91.293846 58.74699 93.18098 53.13655 92.03125 49.3125 C 91.329482 46.74794 87.014481 44.61613 81.59375 46.1875 C 74.387296 48.98574 73.884612 46.54294 71.625 39.40625 C 74.265398 38.17717 76.877069 37.6271 79.34375 37.625 z M 68.3125 42.03125 C 69.064758 43.23872 68.723028 51.40395 75.65625 51.625 C 79.692697 51.41055 88.580941 47.21511 88.53125 53.96875 C 87.292974 61.56593 85.022625 61.22788 81.8125 68.8125 C 73.206408 69.75032 64.951821 64.06136 63.71875 56.53125 C 62.422618 48.49869 66.171898 43.60475 68.3125 42.03125 z M 35 46.6875 C 43.117722 49.12277 45.331248 49.82723 49 50.96875 C 48.053995 56.65677 46.724097 60.63101 45.5625 64.21875 C 40.0611 62.93035 36.908739 62.04059 31.46875 60.5 L 35 46.6875 z M 56.125 49.84375 C 55.505454 53.91137 56.006491 58.10979 57.625 61.96875 C 53.014094 62.89387 51.879245 63.14695 47.78125 64.28125 C 48.631547 61.01719 50.07384 55.50024 51.125 51.09375 L 56.125 49.84375 z M 31.5 62.46875 C 31.5 62.46875 45.573218 66.44817 45.625 66.5 C 45.849284 66.72431 46.76504 70.19577 47.5625 73.5 L 45 76.03125 C 40.99864 76.81445 40.430175 71.14192 32.96875 68.3125 L 31.5 62.46875 z M 58.4375 63.6875 C 58.963288 64.69723 59.562029 65.68413 60.25 66.625 L 54.6875 71.78125 C 53.153331 70.75129 50.826567 70.42428 48.8125 72.28125 C 47.989047 69.01194 47.417774 66.3838 47.5 66.3125 C 47.694675 66.14378 54.384669 64.56946 58.4375 63.6875 z M 96.375 69.40625 L 98.03125 75.84375 C 87.657189 78.46715 82.460429 79.6333 82.375 79.375 C 82.273837 79.0695 81.944952 77.75475 81.5625 76.21875 C 87.820367 75.22996 90.807435 74.03096 96.375 69.40625 z M 33.53125 70.65625 C 37.648426 71.55452 37.71143 75.68095 43.28125 77.65625 L 42.875 78.09375 C 39.119678 77.18875 35 76.1875 35 76.1875 L 33.53125 70.65625 z M 65.8125 72.03125 C 67.66876 73.31699 69.664988 74.32771 71.75 75.03125 C 71.73748 75.72115 71.71902 76.4823 71.71875 77.4375 C 69.286662 76.8342 67.134854 76.31795 66.875 76.34375 L 65.78125 72.0625 L 65.8125 72.03125 z M 51.96875 72.21875 C 52.927104 72.20495 53.918336 72.5125 54.71875 73.21875 L 58.84375 77.21875 C 60.321112 78.65665 60.325146 80.97255 58.84375 82.40625 L 40.8125 99.84375 C 39.331106 101.27745 36.946109 101.28165 35.46875 99.84375 L 31.375 95.84375 C 29.89764 94.40575 29.893605 92.09005 31.375 90.65625 L 49.375 73.21875 C 50.068448 72.56771 51.010395 72.23254 51.96875 72.21875 z M 64.28125 73.3125 C 64.723446 74.46127 64.845439 75.17142 65 76.28125 C 63.766442 76.42865 61.814017 76.81065 60.40625 77.28125 L 64.28125 73.3125 z M 73.46875 75.53125 C 76.018115 76.20317 76.967724 76.34865 79.65625 76.28125 C 80.068638 78.01295 80.4375 79.40625 80.4375 79.40625 C 79.780821 79.39625 76.582785 78.6478 73.46875 77.875 L 73.46875 75.53125 z M 98.03125 77.71875 L 94.3125 92.15625 L 79.25 95.84375 C 81.121387 88.03705 82.665859 81.714 82.6875 81.6875 C 82.71203 81.6575 89.582601 79.87255 98.03125 77.71875 z M 34.84375 78.0625 C 37.351362 78.6841 39.213334 79.14755 41.25 79.65625 L 32.15625 88.5 L 34.84375 78.0625 z M 65 78.15625 C 65.109933 79.12295 64.444153 80.02175 63.15625 85.90625 C 61.751315 85.73675 60.344313 85.3466 58.75 84.375 C 61.793806 81.9531 61.53971 79.8838 61 78.875 C 62.679182 78.4127 63.468574 78.28605 65 78.15625 z M 66.84375 78.25 C 66.87172 78.226 69.135162 78.7461 71.71875 79.375 C 71.528427 82.956 71.358816 84.97415 65.0625 85.96875 C 66.054792 81.61155 66.825732 78.2651 66.84375 78.25 z M 73.46875 79.8125 C 77.015956 80.6837 80.670264 81.5735 80.71875 81.625 C 80.75123 81.66 79.255597 87.96405 77.40625 95.71875 L 63.625 92.375 C 64.074451 90.3897 64.304543 89.21465 64.6875 87.53125 C 70.06267 86.69175 72.921508 86.2073 73.46875 79.8125 z M 57.5 85.53125 C 59.139619 86.66265 60.481588 87.3591 62.8125 87.4375 C 62.671425 88.0088 62.132503 90.44145 61.6875 92.40625 L 46.9375 95.84375 C 51.737434 91.09435 52.349048 90.53365 57.5 85.53125 z "
       transform="translate(0,924.36218)"
       id="path5045" />
    <g
       id="g4200"
       inkscape:export-filename="/home/ybon/Work/osmtouch64.png"
       inkscape:export-xdpi="28.799999"
       inkscape:export-ydpi="28.799999"
       transform="matrix(0.60642479,0,0,0.60642479,5.3287374,929.56145)" />
    <g
       style="stroke:none;display:block"
       id="layer4"
       transform="matrix(0.08798405,0,0,0.08595212,-111.80137,1023.2879)"
       inkscape:export-filename="/home/ybon/Work/osmtouch64.png"
       inkscape:export-xdpi="28.799999"
       inkscape:export-ydpi="28.799999" />
  </g>
</svg>
