<?xml version="1.0" encoding="UTF-8" standalone="no"?>
<!-- Created with Inkscape (http://www.inkscape.org/) -->

<svg
   xmlns:dc="http://purl.org/dc/elements/1.1/"
   xmlns:cc="http://creativecommons.org/ns#"
   xmlns:rdf="http://www.w3.org/1999/02/22-rdf-syntax-ns#"
   xmlns:svg="http://www.w3.org/2000/svg"
   xmlns="http://www.w3.org/2000/svg"
   xmlns:sodipodi="http://sodipodi.sourceforge.net/DTD/sodipodi-0.dtd"
   xmlns:inkscape="http://www.inkscape.org/namespaces/inkscape"
   width="128"
   height="128"
   id="svg2"
   version="1.1"
   inkscape:version="0.48.4 r9939"
   sodipodi:docname="osm.svg">
  <defs
     id="defs4" />
  <sodipodi:namedview
     id="base"
     pagecolor="#ffffff"
     bordercolor="#666666"
     borderopacity="1.0"
     inkscape:pageopacity="0.0"
     inkscape:pageshadow="2"
     inkscape:zoom="3.2979902"
     inkscape:cx="28.27579"
     inkscape:cy="62.961132"
     inkscape:document-units="px"
     inkscape:current-layer="layer1"
     showgrid="true"
     inkscape:snap-page="false"
     inkscape:window-width="1366"
     inkscape:window-height="744"
     inkscape:window-x="0"
     inkscape:window-y="24"
     inkscape:window-maximized="1">
    <inkscape:grid
       type="xygrid"
       id="grid2985"
       empspacing="5"
       visible="true"
       enabled="true"
       snapvisiblegridlinesonly="true" />
  </sodipodi:namedview>
  <metadata
     id="metadata7">
    <rdf:RDF>
      <cc:Work
         rdf:about="">
        <dc:format>image/svg+xml</dc:format>
        <dc:type
           rdf:resource="http://purl.org/dc/dcmitype/StillImage" />
        <dc:title />
      </cc:Work>
    </rdf:RDF>
  </metadata>
  <g
     inkscape:label="Layer 1"
     inkscape:groupmode="layer"
     id="layer1"
     transform="translate(0,-924.36218)">
    <path
       style="opacity:1;fill:#abbcc7;fill-opacity:1;fill-rule:nonzero;stroke:none"
       d="M 64 0 C 28.653776 1.4210855e-14 0 28.653776 0 64 C 0 99.346224 28.653776 128 64 128 C 99.346224 128 128 99.346224 128 64 C 128 28.653776 99.346224 -9.4739031e-15 64 0 z M 103.375 19.53125 L 105.40625 27.3125 C 102.60845 24.70749 99.43852 22.7089 96.0625 21.3125 L 103.375 19.53125 z M 20.0625 19.6875 L 39.375 24.25 C 41.748874 34.80344 43.61835 43.28645 43.5625 43.34375 C 43.509772 43.39784 35.216877 41.00181 24.8125 37.9375 L 20.0625 19.6875 z M 62.46875 19.6875 L 70.6875 21.6875 C 68.318076 22.75645 66.024973 24.13401 63.9375 25.8125 C 63.277243 23.05376 63.217569 22.82378 62.46875 19.6875 z M 60.03125 19.9375 C 60.687778 22.69674 61.323675 25.29139 61.875 27.65625 C 56.737872 32.86408 55.232386 35.23714 53.5 42.09375 C 49.817297 42.93846 46.579925 43.61546 46.46875 43.5 C 46.352576 43.37933 44.46463 35.45165 41.90625 24.34375 L 60.03125 19.9375 z M 83.53125 20.375 C 91.125113 20.37664 98.741278 23.20849 104.53125 28.84375 C 116.11109 40.11427 116.1112 58.38573 104.53125 69.65625 C 94.145336 79.76466 78.080028 81.33501 65.09375 72.25 L 57.5 79.6875 C 57.5 79.6875 52.12068 74.53975 52.03125 74.46875 L 60.0625 66.9375 C 51.818409 55.66313 52.17659 38.95214 62.5625 28.84375 C 68.35248 23.20906 75.937386 20.373 83.53125 20.375 z M 83.53125 25.1875 C 77.203286 25.18586 70.887477 27.55396 66.0625 32.25 C 56.412528 41.6421 56.412528 56.88914 66.0625 66.28125 C 75.712453 75.67335 91.38129 75.67335 101.03125 66.28125 C 110.68139 56.88914 110.64995 41.64207 101 32.25 C 96.175022 27.55337 89.859213 25.1895 83.53125 25.1875 z M 83.625 28.59375 C 91.944434 28.586641 99.074228 33.445863 102.71875 41.0625 C 106.44085 50.35184 103.14334 62.46473 92.78125 68 C 99.396681 56.48936 101.86112 49.07809 100.34375 44.03125 C 99.417584 40.64665 93.716572 37.83242 86.5625 39.90625 C 77.0517 43.59926 76.419648 40.38748 73.4375 30.96875 C 76.922195 29.346663 80.369569 28.596532 83.625 28.59375 z M 69.03125 34.40625 C 70.024052 35.99982 69.568551 46.77076 78.71875 47.0625 C 84.045898 46.77948 95.78433 41.2743 95.71875 50.1875 C 94.084521 60.21396 91.111599 59.74011 86.875 69.75 C 75.517012 70.9877 64.627359 63.50044 63 53.5625 C 61.289415 42.96143 66.206166 36.48289 69.03125 34.40625 z M 25.09375 40.5625 C 35.807207 43.77647 38.720622 44.71222 43.5625 46.21875 C 42.313999 53.72558 40.564281 58.95255 39.03125 63.6875 C 31.770715 61.98712 27.616988 60.84572 20.4375 58.8125 L 25.09375 40.5625 z M 52.96875 44.75 C 52.151096 50.11829 52.801454 55.65709 54.9375 60.75 C 48.852204 61.97093 47.377126 62.28425 41.96875 63.78125 C 43.09094 59.47347 44.987719 52.19051 46.375 46.375 L 52.96875 44.75 z M 20.46875 61.375 C 20.46875 61.375 39.02541 66.65035 39.09375 66.71875 C 39.389752 67.01478 40.603794 71.60792 41.65625 75.96875 L 38.28125 79.28125 C 33.000409 80.31495 32.253551 72.82791 22.40625 69.09375 L 20.46875 61.375 z M 56 63 C 56.693914 64.3326 57.498292 65.63327 58.40625 66.875 L 51.0625 73.6875 C 49.037763 72.3282 45.970587 71.89299 43.3125 74.34375 C 42.225738 70.02904 41.453981 66.56285 41.5625 66.46875 C 41.819424 66.24607 50.65123 64.16398 56 63 z M 106.0625 70.5625 L 108.25 79.03125 C 94.558715 82.49355 87.737746 84.05955 87.625 83.71875 C 87.491489 83.31545 87.035995 81.55835 86.53125 79.53125 C 94.790142 78.22625 98.714642 76.66606 106.0625 70.5625 z M 23.15625 72.21875 C 28.58994 73.40425 28.680417 78.8306 36.03125 81.4375 L 35.46875 82 C 30.512621 80.8057 25.09375 79.5 25.09375 79.5 L 23.15625 72.21875 z M 65.75 74.03125 C 68.199821 75.72813 70.842031 77.04025 73.59375 77.96875 C 73.57723 78.87925 73.562851 79.89565 73.5625 81.15625 C 70.352724 80.36005 67.499195 79.6535 67.15625 79.6875 L 65.71875 74.0625 L 65.75 74.03125 z M 47.46875 74.25 C 48.733549 74.231785 50.037394 74.661675 51.09375 75.59375 L 56.53125 80.875 C 58.481015 82.772661 58.486339 85.826577 56.53125 87.71875 L 32.75 110.71875 C 30.794914 112.61092 27.668511 112.61641 25.71875 110.71875 L 20.28125 105.4375 C 18.331488 103.53983 18.326163 100.48592 20.28125 98.59375 L 44.0625 75.59375 C 44.977686 74.734534 46.203951 74.268215 47.46875 74.25 z M 63.71875 75.71875 C 64.302343 77.23485 64.452267 78.1603 64.65625 79.625 C 63.028248 79.8195 60.451666 80.3164 58.59375 80.9375 L 63.71875 75.71875 z M 75.84375 78.625 C 79.208304 79.5118 80.451788 79.714 84 79.625 C 84.01262 79.6249 84.01863 79.625 84.03125 79.625 C 84.575504 81.9104 85.03125 83.75 85.03125 83.75 C 84.16459 83.7403 79.953534 82.73865 75.84375 81.71875 L 75.84375 78.625 z M 108.28125 81.5 L 103.375 100.5625 L 83.5 105.4375 C 85.969784 95.1346 87.97144 86.785 88 86.75 C 88.032371 86.7108 97.131048 84.3425 108.28125 81.5 z M 24.875 81.96875 C 28.184449 82.78905 30.624587 83.42245 33.3125 84.09375 L 21.34375 95.75 L 24.875 81.96875 z M 64.65625 82.09375 C 64.801336 83.36965 63.949724 84.57765 62.25 92.34375 C 60.39582 92.12005 58.541612 91.5949 56.4375 90.3125 C 60.454597 87.1163 60.118539 84.3938 59.40625 83.0625 C 61.622369 82.4523 62.635133 82.26505 64.65625 82.09375 z M 67.125 82.21875 C 67.161925 82.18735 70.152779 82.88865 73.5625 83.71875 C 73.311318 88.44475 73.059635 91.09365 64.75 92.40625 C 66.059588 86.65585 67.10122 82.23875 67.125 82.21875 z M 75.84375 84.28125 C 80.525216 85.43105 85.34226 86.6195 85.40625 86.6875 C 85.449106 86.7335 83.471946 95.04685 81.03125 105.28125 L 62.84375 100.84375 C 63.436918 98.22365 63.775838 96.69045 64.28125 94.46875 C 71.375191 93.36085 75.121522 92.72085 75.84375 84.28125 z M 54.78125 91.8125 C 56.945156 93.3056 58.705003 94.24025 61.78125 94.34375 C 61.595065 95.09765 60.899798 98.31315 60.3125 100.90625 L 40.84375 105.4375 C 47.178518 99.1695 47.983222 98.4144 54.78125 91.8125 z "
       transform="translate(0,924.36218)"
       id="path2987" />
    <g
       id="g4200"
       inkscape:export-filename="/home/ybon/Work/osmtouch64.png"
       inkscape:export-xdpi="28.799999"
       inkscape:export-ydpi="28.799999"
       transform="matrix(0.60642479,0,0,0.60642479,5.3287374,929.56145)" />
    <g
       style="stroke:none;display:block"
       id="layer4"
       transform="matrix(0.08798405,0,0,0.08595212,-111.80137,1023.2879)"
       inkscape:export-filename="/home/ybon/Work/osmtouch64.png"
       inkscape:export-xdpi="28.799999"
       inkscape:export-ydpi="28.799999" />
  </g>
</svg>
