<?xml version="1.0" encoding="UTF-8" standalone="no"?>
<!-- Created with Inkscape (http://www.inkscape.org/) -->

<svg
   xmlns:dc="http://purl.org/dc/elements/1.1/"
   xmlns:cc="http://creativecommons.org/ns#"
   xmlns:rdf="http://www.w3.org/1999/02/22-rdf-syntax-ns#"
   xmlns:svg="http://www.w3.org/2000/svg"
   xmlns="http://www.w3.org/2000/svg"
   xmlns:sodipodi="http://sodipodi.sourceforge.net/DTD/sodipodi-0.dtd"
   xmlns:inkscape="http://www.inkscape.org/namespaces/inkscape"
   width="128"
   height="128"
   id="svg2"
   version="1.1"
   inkscape:version="0.48.4 r9939"
   sodipodi:docname="solr.svg">
  <defs
     id="defs4" />
  <sodipodi:namedview
     id="base"
     pagecolor="#ffffff"
     bordercolor="#666666"
     borderopacity="1.0"
     inkscape:pageopacity="0.0"
     inkscape:pageshadow="2"
     inkscape:zoom="2.3320313"
     inkscape:cx="-19.916681"
     inkscape:cy="64.094408"
     inkscape:document-units="px"
     inkscape:current-layer="layer1"
     showgrid="true"
     inkscape:snap-page="false"
     inkscape:window-width="1366"
     inkscape:window-height="744"
     inkscape:window-x="0"
     inkscape:window-y="24"
     inkscape:window-maximized="1">
    <inkscape:grid
       type="xygrid"
       id="grid2985"
       empspacing="5"
       visible="true"
       enabled="true"
       snapvisiblegridlinesonly="true" />
  </sodipodi:namedview>
  <metadata
     id="metadata7">
    <rdf:RDF>
      <cc:Work
         rdf:about="">
        <dc:format>image/svg+xml</dc:format>
        <dc:type
           rdf:resource="http://purl.org/dc/dcmitype/StillImage" />
        <dc:title />
      </cc:Work>
    </rdf:RDF>
  </metadata>
  <g
     inkscape:label="Layer 1"
     inkscape:groupmode="layer"
     id="layer1"
     transform="translate(0,-924.36218)">
    <g
       style="stroke:none;display:block"
       id="layer4"
       transform="matrix(0.08798405,0,0,0.08595212,-111.80137,1023.2879)"
       inkscape:export-filename="/home/ybon/Work/osmtouch64.png"
       inkscape:export-xdpi="28.799999"
       inkscape:export-ydpi="28.799999" />
    <path
       style="fill:#23455d;fill-opacity:1;fill-rule:nonzero;stroke:none"
       d="M 64 0 C 28.653776 1.4210855e-14 0 28.653776 0 64 C 0 99.346224 28.653776 128 64 128 C 99.346224 128 128 99.346224 128 64 C 128 28.653776 99.346224 -1.0658141e-14 64 0 z M 65.46875 22.71875 L 68.25 22.71875 C 69.790217 22.71875 72.441427 23.07607 74.125 23.5 L 77.1875 24.28125 L 78 25.25 L 78.8125 26.25 L 76.5 29.5 C 75.223884 31.30071 69.542076 39.02546 63.875 46.65625 C 58.207924 54.28703 51.850172 62.7963 49.75 65.5625 L 45.9375 70.59375 L 45.1875 70.59375 L 44.46875 70.59375 L 44.9375 68.6875 C 45.195282 67.63825 49.334354 58.02682 54.125 47.34375 C 58.915646 36.66066 63.432471 26.74327 64.15625 25.3125 L 65.46875 22.71875 z M 58.78125 23.0625 L 59.0625 24.375 L 59.3125 25.65625 L 51.15625 46.21875 L 43 66.78125 L 41.71875 68.15625 L 40.46875 69.5 L 40.46875 68.0625 C 40.46875 67.25895 41.854378 57.93382 43.5625 47.34375 C 45.27063 36.7537 46.845071 27.52881 47.0625 26.84375 L 47.46875 25.59375 L 50.71875 24.53125 C 52.513198 23.94221 55.054417 23.35338 56.375 23.25 L 58.78125 23.0625 z M 84.75 28 L 86.46875 28.90625 C 87.407051 29.40841 89.640354 31.16253 91.4375 32.8125 L 94.71875 35.8125 L 94.40625 36.71875 C 94.242216 37.21978 91.005321 40.16097 87.21875 43.25 C 83.432176 46.33904 73.346511 54.38944 64.78125 61.125 C 56.21599 67.86065 48.961773 73.375 48.65625 73.375 C 48.350728 73.375 48.09375 73.01805 48.09375 72.59375 C 48.09375 72.16955 50.585057 68.6494 53.625 64.78125 C 56.664944 60.91315 64.378102 51.37488 70.78125 43.59375 C 77.184398 35.81262 82.950892 29.12309 83.59375 28.71875 L 84.75 28 z M 40.96875 29.71875 L 41.40625 30.15625 C 41.647181 30.39719 41.845637 31.69532 41.84375 33.0625 C 41.84165 34.42968 41.053023 42.11268 40.09375 50.125 C 39.134485 58.13734 38.177923 65.23855 37.96875 65.90625 C 37.759576 66.57395 37.330115 67.125 37 67.125 C 36.669886 67.125 36.213495 66.57885 36 65.90625 C 35.786504 65.23355 34.981787 58.49863 34.21875 50.9375 L 32.84375 37.1875 L 33.46875 36.03125 C 33.814424 35.39431 34.980434 34.03386 36.0625 33.03125 C 37.144565 32.02863 38.691699 30.88348 39.5 30.46875 L 40.96875 29.71875 z M 98.15625 41.09375 L 99.46875 42.75 C 101.52909 45.3585 102.41817 48.01422 102.59375 48.5625 C 102.87044 49.42651 103.18352 51.10919 103.28125 52.3125 L 103.46875 54.5 L 91.5625 59.71875 C 85.015535 62.58875 73.315325 67.60355 65.5625 70.875 C 57.809675 74.1464 51.320361 76.84375 51.15625 76.84375 C 50.99214 76.84375 50.875 76.59135 50.875 76.28125 C 50.875 75.97105 51.732018 74.89142 52.78125 73.90625 C 53.830483 72.92105 61.598528 67.1133 70.0625 61 C 78.52648 54.88684 88.321896 47.91606 91.8125 45.5 L 98.15625 41.09375 z M 27.9375 43.53125 L 28.9375 43.53125 L 29.9375 43.53125 L 30.34375 45.4375 C 30.563912 46.48673 31.361006 51.67041 32.125 56.9375 C 32.889 62.20464 33.53125 66.9486 33.53125 67.5 L 33.53125 68.5 L 32.78125 68.5 L 32.0625 68.5 L 30.46875 64.875 C 29.590732 62.872 27.972923 58.68303 26.875 55.5625 L 24.875 49.875 L 26.40625 46.71875 L 27.9375 43.53125 z M 23.125 58.6875 L 24.25 58.90625 L 25.375 59.15625 L 27.34375 64 C 28.425795 66.6708 29.332629 69.24185 29.34375 69.71875 C 29.35485 70.19565 29.115636 70.59375 28.8125 70.59375 C 28.509356 70.59375 27.094727 69.09535 25.6875 67.25 L 23.125 63.875 L 23 62.5625 C 22.93299 61.8323 22.93955 60.66445 23 59.96875 L 23.125 58.6875 z M 105.03125 60.28125 L 104.90625 65.84375 L 104.78125 71.375 L 103.65625 72.625 L 102.53125 73.875 L 79.65625 77.15625 C 67.065461 78.95575 56.138078 80.55615 55.375 80.71875 L 53.96875 81 L 53.0625 80.40625 L 52.15625 79.8125 L 53.78125 78.8125 C 54.66248 78.253 58.038168 76.80762 61.28125 75.625 C 64.524332 74.44243 72.145375 71.56705 78.25 69.21875 C 84.354625 66.8705 91.853937 63.99975 94.90625 62.84375 L 100.46875 60.75 L 102.75 60.5 L 105.03125 60.28125 z M 24.75 71.53125 C 24.976496 71.485951 25.452702 71.803688 25.875 72.3125 L 26.75 73.375 L 26 73.375 C 25.594265 73.375 25.063997 73.0319 24.8125 72.625 C 24.56101 72.2181 24.512894 71.7371 24.6875 71.5625 C 24.709326 71.540675 24.717643 71.537721 24.75 71.53125 z M 97.0625 78.8125 L 99.4375 79.03125 L 101.84375 79.25 L 101.65625 81 L 101.46875 82.71875 L 99.03125 86.375 L 96.625 90 L 93.34375 89.9375 C 91.535332 89.8905 84.277223 89.1264 77.21875 88.25 C 70.160278 87.3736 61.803947 86.29515 58.65625 85.84375 L 52.9375 85 L 52.9375 84.4375 L 52.9375 83.875 L 56.59375 83.15625 C 58.59683 82.77035 68.498738 81.6316 78.625 80.625 L 97.0625 78.8125 z M 52.25 87.9375 L 53.3125 87.9375 C 53.902394 87.9375 60.391708 88.8591 67.71875 90 C 75.045791 91.1408 82.895153 92.3737 85.15625 92.75 L 89.25 93.4375 L 89.9375 94.125 L 90.59375 94.78125 L 90.1875 95.84375 L 89.78125 96.90625 L 86.4375 99 L 83.125 101.09375 L 82.0625 101.0625 C 81.490191 101.0505 77.144238 99.49185 72.375 97.59375 C 67.605761 95.69575 61.116447 93.03175 57.96875 91.65625 L 52.25 89.15625 L 52.25 88.53125 L 52.25 87.9375 z M 49.9375 92.09375 L 51.21875 92.09375 L 52.46875 92.09375 L 63.5 97.0625 L 74.5 102.03125 L 74.3125 103.09375 L 74.09375 104.1875 L 72.375 104.65625 C 71.423157 104.92115 69.640583 105.18075 68.4375 105.21875 L 66.25 105.28125 L 59.34375 100.0625 C 55.545182 97.195 51.872689 94.22585 51.1875 93.46875 L 49.9375 92.09375 z M 48.84375 95.4375 L 51.40625 97.21875 C 52.817439 98.19885 55.009998 99.9273 56.25 101.0625 C 57.490002 102.1977 58.5 103.44065 58.5 103.84375 L 58.5 104.59375 L 56.9375 104.53125 C 56.079038 104.50525 54.731828 104.1858 53.96875 103.8125 L 52.59375 103.125 L 49.9375 99.53125 L 47.28125 95.9375 L 48.0625 95.6875 L 48.84375 95.4375 z M 45.3125 98.09375 L 45.71875 98.53125 C 45.949262 98.76175 46.004413 99.3305 45.84375 99.8125 L 45.5625 100.6875 L 45.03125 99.8125 L 44.46875 98.9375 L 44.90625 98.53125 L 45.3125 98.09375 z "
       transform="translate(0,924.36218)"
       id="path2987" />
    <g
       id="g4593"
       transform="matrix(1.0144451,0,0,1.0144451,-4.2606775,-9.0363354)" />
  </g>
</svg>
